<svg xmlns="http://www.w3.org/2000/svg" width="32" height="32" viewBox="0 0 32 32"><path d="M10.7,33.766c0,.132-.148.238-.335.238-.213.02-.361-.086-.361-.238,0-.132.148-.238.335-.238C10.535,33.508,10.7,33.614,10.7,33.766Zm-2.006-.3c-.045.132.084.285.277.324a.3.3,0,0,0,.4-.132c.039-.132-.084-.285-.277-.344a.328.328,0,0,0-.4.152Zm2.852-.112c-.187.046-.316.172-.3.324.019.132.187.218.381.172s.316-.172.3-.3S11.735,33.336,11.548,33.356ZM15.794,8C6.845,8,0,14.968,0,24.145A16.565,16.565,0,0,0,10.935,39.973c.826.152,1.116-.371,1.116-.8,0-.41-.019-2.673-.019-4.063,0,0-4.516.993-5.465-1.972,0,0-.735-1.926-1.794-2.422,0,0-1.477-1.039.1-1.019A3.392,3.392,0,0,1,7.368,31.4a3.363,3.363,0,0,0,4.7,1.383,3.714,3.714,0,0,1,1.032-2.23c-3.606-.41-7.245-.946-7.245-7.312a5.081,5.081,0,0,1,1.523-3.9,6.4,6.4,0,0,1,.168-4.493C8.9,14.425,12,16.642,12,16.642a14.874,14.874,0,0,1,8.1,0s3.1-2.223,4.452-1.787a6.4,6.4,0,0,1,.168,4.493,5.2,5.2,0,0,1,1.665,3.9c0,6.385-3.8,6.895-7.406,7.312a3.967,3.967,0,0,1,1.1,3.07c0,2.23-.019,4.989-.019,5.532,0,.43.3.953,1.116.8A16.416,16.416,0,0,0,32,24.145,16.013,16.013,0,0,0,15.794,8ZM6.271,30.822c-.084.066-.065.218.045.344.1.106.252.152.335.066.084-.066.065-.218-.045-.344C6.5,30.782,6.355,30.736,6.271,30.822Zm-.7-.536c-.045.086.019.192.148.258A.189.189,0,0,0,6,30.5c.045-.086-.019-.192-.148-.258C5.723,30.2,5.619,30.22,5.574,30.286Zm2.09,2.356c-.1.086-.065.285.084.41.148.152.335.172.419.066.084-.086.045-.285-.084-.41C7.942,32.555,7.748,32.536,7.665,32.641Zm-.735-.973c-.1.066-.1.238,0,.39s.277.218.361.152a.307.307,0,0,0,0-.41C7.2,31.649,7.032,31.583,6.929,31.669Z" transform="translate(0 -8)" fill="#feffff"/></svg>