<svg xmlns="http://www.w3.org/2000/svg" width="32" height="32" viewBox="0 0 32 32"><path d="M27.207,36.65A15.862,15.862,0,0,0,2.25,55.786L0,64l8.407-2.207a15.809,15.809,0,0,0,7.579,1.929h.007A15.756,15.756,0,0,0,27.207,36.65ZM15.993,61.05a13.157,13.157,0,0,1-6.714-1.836L8.8,58.929,3.814,60.236l1.329-4.864-.314-.5a13.205,13.205,0,1,1,24.493-7.007A13.327,13.327,0,0,1,15.993,61.05Zm7.229-9.871c-.393-.2-2.343-1.157-2.707-1.286s-.629-.2-.893.2S18.6,51.379,18.364,51.65s-.464.3-.857.1a10.785,10.785,0,0,1-5.393-4.714c-.407-.7.407-.65,1.164-2.164a.734.734,0,0,0-.036-.693c-.1-.2-.893-2.15-1.221-2.943-.321-.771-.65-.664-.893-.679s-.493-.014-.757-.014a1.468,1.468,0,0,0-1.057.493,4.452,4.452,0,0,0-1.386,3.307,7.762,7.762,0,0,0,1.614,4.1c.2.264,2.793,4.264,6.771,5.986,2.514,1.086,3.5,1.179,4.757.993a4.058,4.058,0,0,0,2.671-1.886,3.314,3.314,0,0,0,.229-1.886C23.879,51.471,23.614,51.371,23.221,51.179Z" transform="translate(0 -32)" fill="#feffff"/></svg>