<svg xmlns="http://www.w3.org/2000/svg" width="31.79" height="32" viewBox="0 0 31.79 32"><path d="M0,61.641a2.271,2.271,0,1,0,4.541,0ZM2.271,34.217l1.888-1.271a2.265,2.265,0,0,0-2.547-.921A2.289,2.289,0,0,0,0,34.217ZM15.9,54.785l-1.888,1.271a2.264,2.264,0,0,0,3.775,0ZM29.519,34.217H31.79a2.28,2.28,0,0,0-1.611-2.185,2.255,2.255,0,0,0-2.547.921ZM27.249,61.641a2.271,2.271,0,1,0,4.541,0Zm-22.707,0V34.217H0V61.641ZM.383,35.488,14.008,56.056l3.782-2.535L4.165,32.952ZM17.79,56.056,31.414,35.488l-3.782-2.542L14.008,53.513l3.782,2.535Zm9.459-21.839V61.641H31.79V34.217Z" transform="translate(0 -31.926)" fill="#feffff"/></svg>