<svg xmlns="http://www.w3.org/2000/svg" width="31.79" height="32" viewBox="0 0 31.79 32"><path d="M29.519,32H2.264A2.288,2.288,0,0,0,0,34.307V61.693A2.288,2.288,0,0,0,2.264,64H29.519a2.294,2.294,0,0,0,2.271-2.307V34.307A2.294,2.294,0,0,0,29.519,32ZM9.608,59.429H4.9V44.157H9.615V59.429ZM7.252,42.071a2.75,2.75,0,1,1,2.732-2.75A2.742,2.742,0,0,1,7.252,42.071ZM27.27,59.429H22.558V52c0-1.771-.035-4.05-2.448-4.05-2.455,0-2.831,1.929-2.831,3.921v7.557H12.567V44.157h4.52v2.086h.064a4.957,4.957,0,0,1,4.463-2.464c4.769,0,5.656,3.164,5.656,7.279Z" transform="translate(0 -32)" fill="#feffff"/></svg>